<svg width="62" height="13" viewBox="0 0 62 13" fill="none" xmlns="http://www.w3.org/2000/svg">
<path d="M4.912 12.096C4.08 12.096 3.28 11.9627 2.512 11.696C1.75467 11.4187 1.168 11.0667 0.752 10.64L1.216 9.728C1.61067 10.112 2.13867 10.4373 2.8 10.704C3.472 10.96 4.176 11.088 4.912 11.088C5.616 11.088 6.18667 11.0027 6.624 10.832C7.072 10.6507 7.39733 10.4107 7.6 10.112C7.81333 9.81333 7.92 9.48267 7.92 9.12C7.92 8.68267 7.792 8.33067 7.536 8.064C7.29067 7.79733 6.96533 7.58933 6.56 7.44C6.15467 7.28 5.70667 7.14133 5.216 7.024C4.72533 6.90667 4.23467 6.784 3.744 6.656C3.25333 6.51733 2.8 6.336 2.384 6.112C1.97867 5.888 1.648 5.59467 1.392 5.232C1.14667 4.85867 1.024 4.37333 1.024 3.776C1.024 3.22133 1.168 2.71467 1.456 2.256C1.75467 1.78667 2.208 1.41333 2.816 1.136C3.424 0.848 4.20267 0.704 5.152 0.704C5.78133 0.704 6.40533 0.794666 7.024 0.976C7.64267 1.14667 8.176 1.38667 8.624 1.696L8.224 2.64C7.744 2.32 7.232 2.08533 6.688 1.936C6.15467 1.78667 5.63733 1.712 5.136 1.712C4.464 1.712 3.90933 1.80267 3.472 1.984C3.03467 2.16533 2.70933 2.41067 2.496 2.72C2.29333 3.01867 2.192 3.36 2.192 3.744C2.192 4.18133 2.31467 4.53333 2.56 4.8C2.816 5.06667 3.14667 5.27467 3.552 5.424C3.968 5.57333 4.42133 5.70667 4.912 5.824C5.40267 5.94133 5.888 6.06933 6.368 6.208C6.85867 6.34667 7.30667 6.528 7.712 6.752C8.128 6.96533 8.45867 7.25333 8.704 7.616C8.96 7.97867 9.088 8.45333 9.088 9.04C9.088 9.584 8.93867 10.0907 8.64 10.56C8.34133 11.0187 7.88267 11.392 7.264 11.68C6.656 11.9573 5.872 12.096 4.912 12.096ZM16.5318 12.096C15.6891 12.096 14.9104 11.9573 14.1958 11.68C13.4811 11.392 12.8624 10.992 12.3398 10.48C11.8171 9.968 11.4064 9.36533 11.1078 8.672C10.8198 7.97867 10.6758 7.22133 10.6758 6.4C10.6758 5.57867 10.8198 4.82133 11.1078 4.128C11.4064 3.43467 11.8171 2.832 12.3398 2.32C12.8731 1.808 13.4971 1.41333 14.2118 1.136C14.9264 0.848 15.7051 0.704 16.5478 0.704C17.3584 0.704 18.1211 0.842666 18.8358 1.12C19.5504 1.38667 20.1531 1.792 20.6438 2.336L19.8918 3.088C19.4331 2.61867 18.9264 2.28267 18.3718 2.08C17.8171 1.86667 17.2198 1.76 16.5798 1.76C15.9078 1.76 15.2838 1.87733 14.7078 2.112C14.1318 2.336 13.6304 2.66133 13.2038 3.088C12.7771 3.504 12.4411 3.99467 12.1957 4.56C11.9611 5.11467 11.8438 5.728 11.8438 6.4C11.8438 7.072 11.9611 7.69067 12.1957 8.256C12.4411 8.81067 12.7771 9.30133 13.2038 9.728C13.6304 10.144 14.1318 10.4693 14.7078 10.704C15.2838 10.928 15.9078 11.04 16.5798 11.04C17.2198 11.04 17.8171 10.9333 18.3718 10.72C18.9264 10.5067 19.4331 10.1653 19.8918 9.696L20.6438 10.448C20.1531 10.992 19.5504 11.4027 18.8358 11.68C18.1211 11.9573 17.3531 12.096 16.5318 12.096ZM21.0945 12L26.2145 0.799999H27.3825L32.5025 12H31.2545L26.5505 1.488H27.0305L22.3265 12H21.0945ZM23.1105 9.008L23.4625 8.048H29.9745L30.3265 9.008H23.1105ZM34.3553 12V0.799999H35.3313L43.0593 10.528H42.5473V0.799999H43.7153V12H42.7393L35.0273 2.272H35.5393V12H34.3553ZM47.3709 12V0.799999H51.9309C53.1255 0.799999 54.1709 1.04 55.0669 1.52C55.9735 1.98933 56.6775 2.64533 57.1789 3.488C57.6802 4.33067 57.9309 5.30133 57.9309 6.4C57.9309 7.49867 57.6802 8.46933 57.1789 9.312C56.6775 10.1547 55.9735 10.816 55.0669 11.296C54.1709 11.7653 53.1255 12 51.9309 12H47.3709ZM48.5549 10.976H51.8669C52.8589 10.976 53.7175 10.784 54.4429 10.4C55.1789 10.0053 55.7495 9.46667 56.1549 8.784C56.5602 8.09067 56.7629 7.296 56.7629 6.4C56.7629 5.49333 56.5602 4.69867 56.1549 4.016C55.7495 3.33333 55.1789 2.8 54.4429 2.416C53.7175 2.02133 52.8589 1.824 51.8669 1.824H48.5549V10.976ZM60.5896 12V0.799999H61.7736V12H60.5896Z" fill="#533738"/>
</svg>
